<svg xmlns="http://www.w3.org/2000/svg" width="21.303" height="40" viewBox="0 0 21.303 40">
  <path id="ico-left-arrow" d="M1.849,21.224A1.685,1.685,0,0,1,1.3,21.3a1.511,1.511,0,0,1-.5-.079,1.1,1.1,0,0,1-.442-.287A1.1,1.1,0,0,1,.079,20.5,1.511,1.511,0,0,1,0,20a1.723,1.723,0,0,1,.079-.549,1.123,1.123,0,0,1,.287-.439L19.01.366a1.128,1.128,0,0,1,.47-.287A1.847,1.847,0,0,1,20,0a1.6,1.6,0,0,1,.5.079,1.14,1.14,0,0,1,.442.287l18.7,18.646a2.271,2.271,0,0,1,.259.439A1.372,1.372,0,0,1,40,20a1.211,1.211,0,0,1-.1.5,2.145,2.145,0,0,1-.259.442.713.713,0,0,1-.236.157c-.086.036-.165.069-.234.1-.1.036-.19.061-.262.079a1.063,1.063,0,0,1-.259.025,1.17,1.17,0,0,1-.234-.025.917.917,0,0,1-.236-.079,1.924,1.924,0,0,1-.259-.1.763.763,0,0,1-.208-.157L20,3.177,2.291,20.937A1.1,1.1,0,0,1,1.849,21.224Z" transform="translate(0 40) rotate(-90)" fill="#fff"/>
</svg>
