<svg xmlns="http://www.w3.org/2000/svg" width="42.427" height="42.426" viewBox="0 0 42.427 42.426">
  <g id="ico-plus" transform="translate(0 21.213) rotate(-45)">
    <path d="M797.989,264.143a.922.922,0,0,1,0-.743,1.1,1.1,0,0,1,.234-.331,1.042,1.042,0,0,1,.333-.234.87.87,0,0,1,.37-.078h13.008V249.749a1.132,1.132,0,0,1,.059-.371.82.82,0,0,1,.215-.331,1.616,1.616,0,0,1,.332-.2.918.918,0,0,1,.741,0,1.63,1.63,0,0,1,.333.2,1.1,1.1,0,0,1,.234.331.909.909,0,0,1,.078.371v13.008h13.008a.892.892,0,0,1,.371.078,1.105,1.105,0,0,1,.331.234,1.833,1.833,0,0,1,.2.331.922.922,0,0,1,0,.743,1.831,1.831,0,0,1-.2.331.87.87,0,0,1-.331.215,1.205,1.205,0,0,1-.371.059H813.926v13.008a.922.922,0,0,1-.078.371,1.143,1.143,0,0,1-.234.331,1.065,1.065,0,0,1-.333.234.917.917,0,0,1-.741,0,1.058,1.058,0,0,1-.332-.234.846.846,0,0,1-.215-.331,1.148,1.148,0,0,1-.059-.371V264.749H798.926a1.174,1.174,0,0,1-.37-.059.833.833,0,0,1-.333-.215A1.1,1.1,0,0,1,797.989,264.143Z" transform="translate(-797.911 -248.772)" fill="#fff"/>
  </g>
</svg>
